<svg id="icon" xmlns="http://www.w3.org/2000/svg" viewBox="0 0 46.65 45.73"><defs><style>.cls-1{fill:#4b8ffd;}</style></defs><title>setting</title><path class="cls-1" d="M454.19,334.31l-6.57-1.64a15,15,0,0,0-.76-3.55h0L452.2,325a1.7,1.7,0,0,0,.3-2.38l-4.22-5.39a1.68,1.68,0,0,0-2.37-.29l-5.35,4.17a14.84,14.84,0,0,0-3.25-1.59v-6.78a1.7,1.7,0,0,0-1.7-1.69h-6.84a1.7,1.7,0,0,0-1.7,1.69v6.78h0a13.81,13.81,0,0,0-2.32,1h0l-5-4.54a1.69,1.69,0,0,0-2.39.13l-4.58,5.08a1.7,1.7,0,0,0,.12,2.4l5,4.53a15.05,15.05,0,0,0-1,3.49l-6.67,1.17a1.7,1.7,0,0,0-1.38,2l1.19,6.75a1.69,1.69,0,0,0,2,1.37l6.68-1.18a15.37,15.37,0,0,0,2.12,2.94h0l-3.17,6a1.69,1.69,0,0,0,.7,2.29l6,3.21a1.69,1.69,0,0,0,2.29-.7l3.18-6a15.21,15.21,0,0,0,2.35.18c.43,0,.85,0,1.28,0l2.75,6.19a1.69,1.69,0,0,0,2.24.85l6.25-2.78a1.69,1.69,0,0,0,.86-2.23l-2.76-6.19a15.14,15.14,0,0,0,2.33-2.78h0l6.58,1.64a1.7,1.7,0,0,0,2-1.24l1.66-6.64A1.69,1.69,0,0,0,454.19,334.31Zm-29.45-.22a7.45,7.45,0,1,1,7.45,7.45A7.45,7.45,0,0,1,424.74,334.09Z" transform="translate(-408.83 -311)"/></svg>